<?xml version="1.0" encoding="utf-8"?>
<!-- Generator: Adobe Illustrator 23.1.1, SVG Export Plug-In . SVG Version: 6.00 Build 0)  -->
<svg version="1.1" id="Warstwa_1" xmlns="http://www.w3.org/2000/svg" xmlns:xlink="http://www.w3.org/1999/xlink" x="0px" y="0px"
	 viewBox="0 0 1087.7 1009.4" style="enable-background:new 0 0 1087.7 1009.4;" xml:space="preserve">
<style type="text/css">
	.st0{clip-path:url(#SVGID_2_);fill:none;stroke:#010202;stroke-width:0.75;stroke-miterlimit:10;}
	.st1{clip-path:url(#SVGID_2_);fill:none;stroke:#010202;stroke-width:0.693;stroke-miterlimit:10;}
	.st2{clip-path:url(#SVGID_2_);fill:none;stroke:#010202;stroke-width:0.82;stroke-miterlimit:10;}
	.st3{clip-path:url(#SVGID_2_);fill:none;stroke:#010202;stroke-miterlimit:10;}
	.st4{clip-path:url(#SVGID_2_);fill:none;stroke:#010202;stroke-width:0.628;stroke-miterlimit:10;}
	.st5{clip-path:url(#SVGID_2_);fill:none;stroke:#010202;stroke-width:0.743;stroke-miterlimit:10;}
	.st6{clip-path:url(#SVGID_2_);fill:none;stroke:#010202;stroke-width:0.736;stroke-miterlimit:10;}
	.st7{clip-path:url(#SVGID_2_);fill:none;stroke:#010202;stroke-width:0.678;stroke-miterlimit:10;}
	.st8{clip-path:url(#SVGID_2_);fill:#FFFFFF;}
</style>
<g>
	<defs>
		<rect id="SVGID_1_" y="0" width="1087.7" height="1009.4"/>
	</defs>
	<clipPath id="SVGID_2_">
		<use xlink:href="#SVGID_1_"  style="overflow:visible;"/>
	</clipPath>
	<path class="st0" d="M672.9,543.8c6.1,2.4,13.4,3.1,19.7,1.5v0c1.2-0.3,2.4-0.7,3.6-1.2c1.8,0.2,3.2,0.9,5.4,1.5
		c3.9,1.1,1.9,1.5,0.2,2.1c-0.7,0.2-1.5,0.5-2.2,0.6c-2.1,0.6-4.2,0.8-6.4,1.4c-3.1,0.9-6.1,1.8-9.2,2.7c0.2,1.1,1.2,2.1,1.2,2.1
		c9.7,3.6,19.3,6.2,29.2,8c6.5,1.2,13.1,2.2,19.8,3c8-4,17-6,26-5c0.5,2.7,1.7,4.8,3.3,6.5c4.9,5.1,13.9,6.2,20.7,8.5
		c0.1,0.3,0.2,0.5,0.3,0.8c2.7,6.8,3.6,14.5,2.7,21.2c0,1-3,2-4,2c-5,0-10-2-15-1c-80,19-147,58-221,89c-6,2.2-12.6,2.9-18.9,1.8
		c-10.3-1.8-19.3-8.1-25.1-16.8c-14-22-17-46-23-70c-4-16-10-30-21-42c-11-11-25-18-40-17c-21,2-43,10-64,1c-5-3-4-8-4-13
		c2-17,4-33,6-50c2-11,3-21,5-32c1-7-3-12-4-19c-1-8-1-14,0-22c4-20,16-36,33.7-43.6"/>
	<path class="st0" d="M417.1,359.6c10.5,0,21.5,1,33.5,3c15,3,28,5,43,7c26.8,3,54.3,3.2,80.6-3.2c11-2.7,21.9-6.3,32-11.4
		c9.9-5,19.6-10.7,30.8-12.5c11-1.7,22.5-2.1,33.3,0.5c6.4,1.6,24.9,7.3,23.4,16.3c-0.2,1.3-0.9,2.5-1.8,3.5
		c-14.5,15.2-35.4,20.6-55.4,23.8c-20.7,3.4-42.3,3-62.8,1.5c-26.4-1.9-50.5-9.4-76.1-15.2c-42.2-9.7-87.7-2.7-95.5,47.7
		c-2.9,18.9-0.1,47.6,21.1,55.6c19.4,7.2,31.7-8.7,43.2-21.7c16.6-18.8,32.5-23.8,57.8-18.8C585,448,653,448.6,701.3,401.5
		c4.9-14.8-7.8-45.4-7.8-45.4"/>
	<path class="st0" d="M784.9,576.4c0,0-0.1,0-0.3,0.1c-2.6,0.7-20.4,5.2-58.8,9.6c-41.8,4.7-126.5,59.5-162.7,61.6
		c-36.1,2.1-42.7-45.9-42.7-45.9L628,560.8l11.4-4.3l33.5-12.7l-0.7-7.7c0-0.1,0-0.2,0-0.3"/>
	<path class="st0" d="M449.1,473.4c0,0,53.8,33.7,71.4,128.3"/>
	
		<ellipse transform="matrix(0.2791 -0.9603 0.9603 0.2791 -359.0458 868.6541)" class="st0" cx="399" cy="673.5" rx="97.3" ry="56.4"/>
	<path class="st0" d="M453.1,689.6c-16.2,55.6-58.7,92.1-95.1,81.5c-36.4-10.6-52.7-64.2-36.6-119.8c16.2-55.6,58.7-92.1,95.1-81.5
		C452.9,580.4,469.2,634,453.1,689.6z"/>
	<polyline class="st0" points="356.4,590.4 359.1,564.3 360.2,553.5 360.9,546.7 	"/>
	<polyline class="st0" points="371.3,578.4 372.6,564.2 373.2,557.5 374,548.8 	"/>
	<line class="st0" x1="403.4" y1="545.9" x2="401.3" y2="568.1"/>
	<path class="st0" d="M508.8,679.3c-8.7,0.3-17.7-0.1-25.7-3.8c-9.7-4.5-18.6-11.4-23.7-20.9c-0.1-0.1-0.2-0.3-0.2-0.4"/>
	<path class="st0" d="M448.9,599c0-0.1-0.1-0.3-0.1-0.4c0.1-30-12.4-48.4-29.6-54.9"/>
	<path class="st1" d="M859.7,591c-6,24.7-22.9,41.8-37.7,38.2c-14.9-3.6-22.1-26.5-16.1-51.3c6-24.7,22.9-41.8,37.7-38.2
		C858.4,543.3,865.6,566.3,859.7,591z"/>
	<path class="st2" d="M859.5,591.5c-6.6,27.4-27.2,45.9-46,41.4c-18.8-4.5-28.6-30.4-22-57.8c6.6-27.4,27.2-45.9,46-41.4
		C856.3,538.2,866.2,564.1,859.5,591.5z"/>
	<path class="st3" d="M795.6,563.1c-3.2,1.8-8.4,3-14.3,3c-9.8,0-17.8-3.3-17.8-7.4c0-4.1,8-7.4,17.8-7.4c8.4,0,15.5,2.4,17.3,5.7"
		/>
	<path class="st0" d="M714.4,535.7c0,3.7-9.5,6.7-21.1,6.7h-0.1c-11.2,0-20.4-2.8-21-6.3c0-0.1,0-0.2,0-0.4c0-3.7,9.4-6.6,21.1-6.6
		h0.4C705.2,529.2,714.4,532.1,714.4,535.7z"/>
	<line class="st0" x1="714.4" y1="535.7" x2="714.4" y2="562.7"/>
	<line class="st3" x1="763.5" y1="567.2" x2="763.5" y2="558.7"/>
	<line class="st4" x1="692.6" y1="545.3" x2="692.6" y2="545.3"/>
	<path class="st4" d="M639.4,556.5c-1.9-7.1-2-15.4,0.1-23.8c5-20.6,20.9-34.4,35.5-30.9c5.6,1.4,10.2,5.1,13.5,10.3c0,0,0,0,0,0"/>
	<line class="st5" x1="692.6" y1="545.3" x2="692.6" y2="545.3"/>
	<path class="st5" d="M628,560.8c-4.1-8.9-5.2-19.9-2.5-31.1c5.5-22.8,25-37.7,43.5-33.2c8.5,2,15.2,7.8,19.6,15.6c0,0,0,0,0,0.1
		c2.8,4.9,4.5,10.7,5.1,16.9"/>
	<path class="st6" d="M337.5,758.9c-8.1,1.9-17.1,2.7-24.9,0.4c-35.7-10.4-51.8-63-35.9-117.6c14.3-49.3,49.8-83.3,82.8-81.8"/>
	<path class="st6" d="M358.2,572.3c-23.6,7.7-47.2,36.8-58.5,75.6c-14.7,50.7-2.9,98.7,26.5,107.2c2.5,0.7,6.3,1.2,8.9,1.3"/>
	<path class="st0" d="M388.2,396L406.1,249c0,0-6.3-1.1-5.8-5.3c0.5-4.2,2.6-14.2,2.6-14.2L319.7,200c0,0-11.5,8.6-21.7-5.7
		c-6.5-9-3.4-22.2,2.2-30.9c3.2-4.9,8.8-10.2,15.1-9.4c11.2,1.1,14.1,9.7,15.2,11.8c0,0,81.1,40.8,99.6,41.4
		c19.3,2.8,91-4.5,114.2-9.2c0,0,20.7-19.6,29.9,2.5c5.4,12.9,2.5,32.9-10.2,41c-7.7,4.9-15.1-0.5-19.7-6.8l-62.3,2.5l-34.5,0.8
		c0,0-10.1-0.3-10.7,7.6c-1.1,3.4-0.6,6.2-5.3,5.9l-16.8,127.8c0,0-5.3,1.7-16.5,14.3C386.9,406.2,388.2,396,388.2,396z"/>
	<path class="st0" d="M540.6,438.8c0,0-3.3,12.9-2.9,21.5c0.2,4.7,4.2,8.2,8.9,7.8c12.7-1,29.7-14.9,33.3-25.3"/>
	<path class="st0" d="M529.6,436.9c-1,3.9-1.8,7.9-2.4,11.8c-0.5,3.1-0.9,6.3-0.9,9.5c0,3.7,2.4,6.1,5.4,8c8,5.1,17.8,3.3,25.5-1.4"
		/>
	<path class="st7" d="M515.9,434.6c0,0-3.4,13.1-3.1,20.6c0.2,4.1,3.9,7.2,8.2,6.9c1.8-0.1,3.8-0.6,5.8-1.2"/>
	<path class="st7" d="M505.3,434.6c-0.9,3.5-1.7,6.9-2.2,10.4c-0.4,2.8-0.9,5.6-0.9,8.4c0,3.2,2.2,5.3,5,7.1
		c6.1,3.6,13.3,3.3,19.6,0.7"/>
	<line class="st8" x1="703.8" y1="546.8" x2="703.8" y2="560.4"/>
	<line class="st0" x1="703.8" y1="546.8" x2="703.8" y2="560.4"/>
</g>
</svg>
